<svg width="119" height="135" viewBox="0 0 119 135" fill="none" xmlns="http://www.w3.org/2000/svg">
  <g clip-path="url(#clip0_135_9463)">
    <path d="M70.4115 72.2892H15.9691C12.9758 72.2892 10.5508 69.8591 10.5508 66.8595C10.5508 63.8598 12.9758 61.4298 15.9691 61.4298H70.4115V72.2892Z" fill="#46A78B"/>
    <path d="M58.2468 75.8384L67.2097 66.8624L58.2468 57.8863C54.7737 54.4058 57.2329 48.4552 62.1427 48.4552C63.6051 48.4552 65.0075 49.0362 66.0415 50.0723L82.7961 66.8624L66.0415 83.6524C65.0075 84.6885 63.6051 85.2695 62.1427 85.2695C57.23 85.2695 54.7708 79.3189 58.2468 75.8384Z" fill="#69BD9B"/>
    <path d="M89.4121 42.8934C87.8984 41.3766 85.4444 41.3766 83.9307 42.8934C82.4171 44.4103 82.4171 46.8695 83.9307 48.3864L95.6104 60.0907C97.124 61.6075 99.5781 61.6075 101.092 60.0907C102.605 58.5739 102.605 56.1146 101.092 54.5978L89.4121 42.8934Z" fill="#4DA7B1"/>
    <path d="M69.7186 1.13691C68.205 -0.379919 65.7509 -0.379924 64.2373 1.1369C62.7237 2.65373 62.7237 5.113 64.2373 6.62983L101.377 43.8477C102.89 45.3646 105.344 45.3646 106.858 43.8477C108.372 42.3309 108.372 39.8716 106.858 38.3548L69.7186 1.13691Z" fill="#4DA7B1"/>
    <path d="M95.6117 74.0467L83.932 85.751C82.4184 87.2678 82.4184 89.7271 83.932 91.2439C85.4456 92.7608 87.8997 92.7608 89.4134 91.2439L101.093 79.5396C102.607 78.0228 102.607 75.5635 101.093 74.0467C99.5794 72.5298 97.1253 72.5298 95.6117 74.0467Z" fill="#6FC3BB"/>
    <path d="M101.376 90.2904L64.2343 127.51C62.7207 129.027 62.7207 131.486 64.2343 133.003C65.748 134.52 68.202 134.52 69.7157 133.003L106.857 95.7833C108.371 94.2665 108.371 91.8072 106.857 90.2904C105.343 88.7736 102.889 88.7736 101.376 90.2904Z" fill="#6FC3BB"/>
  </g>
  <defs>
    <clipPath id="clip0_135_9463">
      <rect width="118.545" height="134.143" fill="white"/>
    </clipPath>
  </defs>
</svg>