<svg width="32" height="32" viewBox="0 0 32 32" fill="none" xmlns="http://www.w3.org/2000/svg">
  <path d="M23.26 4.64001C24.35 5.16001 24.35 6.71001 23.26 7.22001L16.22 10.53L9.18 7.22001C8.09 6.71001 8.09 5.16001 9.18 4.64001H23.26Z" fill="#4BA6AF"/>
  <path d="M26.94 22.69C26.43 23.81 24.84 23.81 24.34 22.69L21.22 15.76L24.34 8.82999C24.85 7.70999 26.44 7.70999 26.94 8.82999V22.7V22.69Z" fill="#45A689"/>
  <path d="M5.15 8.82001C5.66 7.70001 7.25 7.70001 7.75 8.82001L10.87 15.75L7.75 22.68C7.24 23.8 5.65 23.8 5.15 22.68V8.81001V8.82001Z" fill="#6EC2BA"/>
  <path d="M9.18 26.88C8.09 26.36 8.09 24.81 9.18 24.3L16.22 20.99L23.26 24.3C24.35 24.81 24.35 26.36 23.26 26.88H9.18Z" fill="#66BC99"/>
</svg> 