<svg width="114" height="115" viewBox="0 0 114 115" fill="none" xmlns="http://www.w3.org/2000/svg">
<g id="Iconos_Mesa de trabajo 1 copia 2 1" filter="url(#filter0_i_42_107)">
<path id="Vector" d="M64.7284 65.2684V102.773C64.7284 105.727 62.3326 108.123 59.378 108.123H54.622C51.6674 108.123 49.2716 105.727 49.2716 102.773V65.2684L57 57.54L64.7284 65.2684Z" fill="#67BD9A"/>
<path id="Vector_2" d="M49.2716 49.8117V12.3075C49.2716 9.35281 51.6674 6.95703 54.622 6.95703H59.378C62.3326 6.95703 64.7284 9.35281 64.7284 12.3075V49.8117L57 57.5401L49.2716 49.8117Z" fill="#4DA7B1"/>
<path id="Vector_3" d="M49.2716 65.2683H11.7674C8.81274 65.2683 6.41696 62.8725 6.41696 59.9179V55.162C6.41696 52.2073 8.81274 49.8115 11.7674 49.8115H49.2716L57 57.5399L49.2716 65.2683Z" fill="#6FC3BB"/>
<path id="Vector_4" d="M64.7284 49.8115H102.233C105.187 49.8115 107.583 52.2073 107.583 55.162V59.9179C107.583 62.8725 105.187 65.2683 102.233 65.2683H64.7284L57 57.5399L64.7284 49.8115Z" fill="#46A78B"/>
</g>
<defs>
<filter id="filter0_i_42_107" x="0" y="0.540039" width="114" height="118" filterUnits="userSpaceOnUse" color-interpolation-filters="sRGB">
<feFlood flood-opacity="0" result="BackgroundImageFix"/>
<feBlend mode="normal" in="SourceGraphic" in2="BackgroundImageFix" result="shape"/>
<feColorMatrix in="SourceAlpha" type="matrix" values="0 0 0 0 0 0 0 0 0 0 0 0 0 0 0 0 0 0 127 0" result="hardAlpha"/>
<feOffset dy="4"/>
<feGaussianBlur stdDeviation="2"/>
<feComposite in2="hardAlpha" operator="arithmetic" k2="-1" k3="1"/>
<feColorMatrix type="matrix" values="0 0 0 0 0.113725 0 0 0 0 0.121569 0 0 0 0 0.247059 0 0 0 0.25 0"/>
<feBlend mode="normal" in2="shape" result="effect1_innerShadow_42_107"/>
</filter>
</defs>
</svg>
