<svg width="114" height="115" viewBox="0 0 114 115" fill="none" xmlns="http://www.w3.org/2000/svg">
<g id="Iconos_Mesa de trabajo 1 copia 3" filter="url(#filter0_i_42_145)">
<path id="Vector" d="M57 37.1848C41.915 37.1848 29.6868 49.4131 29.6868 64.4981C29.6868 79.583 50.2402 104.048 57 104.048C63.7599 104.048 84.3133 79.583 84.3133 64.4981C84.3133 49.4131 72.085 37.1848 57 37.1848ZM57 75.6019C50.8681 75.6019 45.8961 70.63 45.8961 64.4981C45.8961 58.3661 50.8681 53.3942 57 53.3942C63.132 53.3942 68.1039 58.3661 68.1039 64.4981C68.1039 70.63 63.132 75.6019 57 75.6019Z" fill="#46A78B"/>
<g id="Group">
<path id="Vector_2" d="M57 22.7033C55.6262 22.7033 54.5152 21.59 54.5152 20.2185V5.39402C54.5152 4.02023 55.6284 2.90918 57 2.90918C58.3716 2.90918 59.4849 4.02246 59.4849 5.39402V20.2163C59.4849 21.59 58.3716 22.7011 57 22.7011V22.7033Z" fill="#68BD9A"/>
<path id="Vector_3" d="M108.182 96.5362C107.761 96.5362 107.334 96.4293 106.942 96.2022L95.1678 89.4045C93.9788 88.7187 93.5713 87.198 94.2571 86.009C94.9429 84.82 96.4636 84.4126 97.6526 85.0983L109.427 91.896C110.616 92.5818 111.023 94.1026 110.337 95.2915C109.876 96.0887 109.041 96.534 108.182 96.534V96.5362Z" fill="#6FC3BB"/>
<path id="Vector_4" d="M5.81802 96.5362C4.95857 96.5362 4.12361 96.0909 3.66271 95.2937C2.97693 94.1048 3.38439 92.584 4.57337 91.8982L16.3474 85.1005C17.5364 84.4148 19.0572 84.8222 19.7429 86.0112C20.4287 87.2002 20.0213 88.7209 18.8323 89.4067L7.05822 96.2044C6.66634 96.4315 6.23884 96.5384 5.81802 96.5384V96.5362Z" fill="#4EA8B1"/>
</g>
</g>
<defs>
<filter id="filter0_i_42_145" x="0" y="0.540039" width="114" height="118" filterUnits="userSpaceOnUse" color-interpolation-filters="sRGB">
<feFlood flood-opacity="0" result="BackgroundImageFix"/>
<feBlend mode="normal" in="SourceGraphic" in2="BackgroundImageFix" result="shape"/>
<feColorMatrix in="SourceAlpha" type="matrix" values="0 0 0 0 0 0 0 0 0 0 0 0 0 0 0 0 0 0 127 0" result="hardAlpha"/>
<feOffset dy="4"/>
<feGaussianBlur stdDeviation="2"/>
<feComposite in2="hardAlpha" operator="arithmetic" k2="-1" k3="1"/>
<feColorMatrix type="matrix" values="0 0 0 0 0.113725 0 0 0 0 0.121569 0 0 0 0 0.247059 0 0 0 0.25 0"/>
<feBlend mode="normal" in2="shape" result="effect1_innerShadow_42_145"/>
</filter>
</defs>
</svg>
