<svg width="114" height="115" viewBox="0 0 114 115" fill="none" xmlns="http://www.w3.org/2000/svg">
<g id="Iconos_Mesa de trabajo 1 1" filter="url(#filter0_i_42_135)">
<path id="Vector" d="M67.8255 4.21611C59.4225 1.2147 45.8716 1.3906 38.357 10.5039C42.6587 9.45744 47.074 9.09451 50.9348 9.44185C51.5071 9.51755 53.0189 9.72908 53.6089 9.80923C57.7147 10.5841 61.5444 12.3319 65.1158 14.3937C67.9881 15.9902 71.0875 18.0809 74.3984 18.5752C74.4629 18.5841 74.5097 18.6442 74.5008 18.7088C74.4941 18.7622 74.4518 18.8023 74.4006 18.8112C73.225 18.9938 72.0048 18.8825 70.8314 18.6509C67.3914 17.905 64.2096 16.1794 61.0368 14.8702C57.423 13.3539 53.7514 11.8109 49.8505 11.3701C46.2323 10.9515 43.1575 11.8287 39.3322 12.5679C43.0395 15.6762 45.0857 17.4263 48.3832 20.2719C64.9666 34.5797 79.9291 32.0504 91.534 22.0687C82.7413 16.676 77.5378 7.68955 67.8255 4.21833V4.21611Z" fill="#4DA7B1"/>
<path id="Vector_2" d="M38.9225 12.6814C32.3364 14.3113 26.8189 17.4106 24.5746 20.0469C24.1827 20.5078 23.4969 20.6436 22.9937 20.3074C22.3992 19.9111 22.2946 19.1006 22.7421 18.5685C25.3717 15.4424 31.1095 12.2406 37.8649 10.5083C37.2526 11.2008 37.571 12.294 38.4594 12.5478L38.9225 12.6792V12.6814Z" fill="#6FC3BB"/>
<path id="Vector_3" d="M46.1744 110.864C54.5775 113.865 68.1283 113.689 75.643 104.576C71.3413 105.623 66.926 105.985 63.0651 105.638C62.4929 105.562 60.9811 105.351 60.391 105.271C56.2853 104.496 52.4556 102.748 48.8842 100.686C46.0119 99.0898 42.9125 96.9991 39.6016 96.5048C39.5371 96.4959 39.4903 96.4358 39.4992 96.3712C39.5059 96.3178 39.5482 96.2777 39.5994 96.2688C40.775 96.0862 41.9952 96.1975 43.1686 96.4291C46.6086 97.175 49.7904 98.9006 52.9632 100.21C56.5769 101.726 60.2485 103.269 64.1495 103.71C67.7676 104.129 70.8425 103.251 74.6678 102.512C70.9605 99.4038 68.9143 97.6537 65.6168 94.8081C49.0333 80.5003 34.0708 83.0296 22.466 93.0113C31.2587 98.404 36.4622 107.39 46.1744 110.862V110.864Z" fill="#67BD9A"/>
<path id="Vector_4" d="M75.0775 102.399C81.6636 100.769 87.181 97.6693 89.4254 95.0331C89.8173 94.5722 90.5031 94.4363 91.0063 94.7726C91.6008 95.1689 91.7054 95.9794 91.2579 96.5115C88.6283 99.6376 82.8905 102.839 76.1351 104.572C76.7474 103.879 76.429 102.786 75.5406 102.532L75.0775 102.401V102.399Z" fill="#46A78B"/>
<path id="Vector_5" d="M110.324 68.3655C113.325 59.9625 113.149 46.4116 104.036 38.897C105.083 43.1987 105.446 47.614 105.098 51.4748C105.023 52.047 104.811 53.5589 104.731 54.1489C103.956 58.2547 102.208 62.0844 100.146 65.6558C98.5499 68.5281 96.4592 71.6274 95.9649 74.9383C95.956 75.0029 95.8958 75.0497 95.8313 75.0408C95.7778 75.0341 95.7378 74.9918 95.7289 74.9406C95.5463 73.7649 95.6576 72.5448 95.8892 71.3714C96.6351 67.9313 98.3607 64.7496 99.6699 61.5767C101.186 57.963 102.729 54.2914 103.17 50.3905C103.589 46.7723 102.711 43.6974 101.972 39.8722C98.8639 43.5794 97.1138 45.6256 94.2682 48.9232C79.9603 65.5066 82.4897 80.4691 92.4714 92.074C97.8641 83.2813 106.851 78.0778 110.322 68.3655H110.324Z" fill="#46A78B"/>
<path id="Vector_6" d="M101.859 39.4626C100.229 32.8765 97.1293 27.359 94.4931 25.1147C94.0322 24.7228 93.8964 24.037 94.2326 23.5338C94.6289 22.9393 95.4394 22.8347 95.9715 23.2822C99.0976 25.9118 102.299 31.6496 104.032 38.405C103.339 37.7927 102.246 38.1111 101.992 38.9995L101.861 39.4626H101.859Z" fill="#4DA7B1"/>
<path id="Vector_7" d="M3.67607 46.7145C0.674663 55.1176 0.850561 68.6684 9.96388 76.1831C8.9174 71.8814 8.55447 67.4661 8.90181 63.6052C8.97751 63.033 9.18904 61.5212 9.26919 60.9311C10.044 56.8254 11.7919 52.9957 13.8537 49.4243C15.4501 46.552 17.5409 43.4526 18.0352 40.1417C18.0441 40.0772 18.1042 40.0304 18.1688 40.0393C18.2222 40.046 18.2623 40.0883 18.2712 40.1395C18.4538 41.3151 18.3424 42.5353 18.1109 43.7087C17.365 47.1487 15.6394 50.3305 14.3302 53.5033C12.8139 57.117 11.2709 60.7886 10.83 64.6896C10.4114 68.3077 11.2887 71.3826 12.0279 75.2079C15.1362 71.5006 16.8863 69.4544 19.7318 66.1569C34.0397 49.5735 31.5103 34.6109 21.5286 23.0061C16.1359 31.7988 7.14951 37.0023 3.6783 46.7145H3.67607Z" fill="#6FC3BB"/>
<path id="Vector_8" d="M12.1414 75.6174C13.7713 82.2036 16.8707 87.721 19.5069 89.9654C19.9678 90.3573 20.1036 91.0431 19.7674 91.5463C19.3711 92.1408 18.5606 92.2454 18.0285 91.7979C14.9024 89.1683 11.7006 83.4304 9.96832 76.675C10.6608 77.2874 11.754 76.969 12.0079 76.0806L12.1392 75.6174H12.1414Z" fill="#67BD9A"/>
</g>
<defs>
<filter id="filter0_i_42_135" x="0" y="0.540039" width="114" height="118" filterUnits="userSpaceOnUse" color-interpolation-filters="sRGB">
<feFlood flood-opacity="0" result="BackgroundImageFix"/>
<feBlend mode="normal" in="SourceGraphic" in2="BackgroundImageFix" result="shape"/>
<feColorMatrix in="SourceAlpha" type="matrix" values="0 0 0 0 0 0 0 0 0 0 0 0 0 0 0 0 0 0 127 0" result="hardAlpha"/>
<feOffset dy="4"/>
<feGaussianBlur stdDeviation="2"/>
<feComposite in2="hardAlpha" operator="arithmetic" k2="-1" k3="1"/>
<feColorMatrix type="matrix" values="0 0 0 0 0.113725 0 0 0 0 0.121569 0 0 0 0 0.247059 0 0 0 0.25 0"/>
<feBlend mode="normal" in2="shape" result="effect1_innerShadow_42_135"/>
</filter>
</defs>
</svg>
