<svg width="51.11" height="51.5" xmlns="http://www.w3.org/2000/svg" xmlns:svg="http://www.w3.org/2000/svg">
 <defs>
  <clipPath id="clip0_122_177">
   <rect fill="white" height="51.5" id="svg_1" width="51.11"/>
  </clipPath>
 </defs>
 <g class="layer">
  <title>Layer 1</title>
  <g clip-path="url(#clip0_122_177)" id="Patron 1" opacity="0.5">
   <path d="m17.46,17.78l-17.46,-8.33l0,-1.11l15.46,7.38l-6.94,-15.72l1.1,0l7.84,17.78z" fill="#67BD9A" id="Vector"/>
   <path d="m25.56,20.88c-1.68,0 -3.14,-0.95 -3.83,-2.48l-8.28,-18.4l1.08,0l8.1,17.99c0.52,1.16 1.64,1.89 2.92,1.89c1.28,0 2.4,-0.72 2.92,-1.89l8.11,-17.99l1.14,0l-8.33,18.4c-0.69,1.53 -2.16,2.48 -3.83,2.48z" fill="#67BD9A" id="Vector_2"/>
   <path d="m33.65,17.78l7.85,-17.78l1.09,0l-6.94,15.72l15.46,-7.38l0,1.11l-17.46,8.33z" fill="#67BD9A" id="Vector_3"/>
   <path d="m51.11,38.34l-18.68,-8.74c-1.49,-0.7 -2.41,-2.15 -2.41,-3.8c0,-1.65 0.92,-3.1 2.4,-3.8l18.7,-8.84l0,1.07l-18.27,8.68c-1.13,0.54 -1.83,1.65 -1.83,2.9c0,1.25 0.71,2.36 1.84,2.89l18.25,8.59l0,1.06l0,-0.01z" fill="#67BD9A" id="Vector_4"/>
   <path d="m41.5,51.5l-7.85,-17.78l17.46,8.33l0,1.11l-15.46,-7.38l6.94,15.72l-1.09,0z" fill="#67BD9A" id="Vector_5"/>
   <path d="m36.58,51.5l-8.1,-17.99c-0.52,-1.16 -1.64,-1.89 -2.92,-1.89c-1.28,0 -2.4,0.72 -2.92,1.89l-8.1,17.99l-1.07,0l8.26,-18.4c0.69,-1.53 2.16,-2.48 3.83,-2.48c1.67,0 3.14,0.95 3.83,2.48l8.24,18.4l-1.05,0z" fill="#67BD9A" id="Vector_6"/>
   <path d="m9.62,51.5l-1.1,0l6.94,-15.72l-15.46,7.3l0,-1.03l17.46,-8.33l-7.84,17.78z" fill="#67BD9A" id="Vector_7"/>
   <path d="m0,38.34l0,-1.06l18.26,-8.59c1.13,-0.53 1.84,-1.64 1.84,-2.89c0,-1.25 -0.7,-2.36 -1.83,-2.9l-18.27,-8.68l0,-0.9l18.7,8.68c1.48,0.7 2.4,2.16 2.4,3.8c0,1.64 -0.93,3.1 -2.41,3.8l-18.69,8.74z" fill="#67BD9A" id="Vector_8"/>
  </g>
 </g>
</svg>