<?xml version="1.0" encoding="UTF-8"?>
<svg id="LOGO" xmlns="http://www.w3.org/2000/svg" viewBox="0 0 1676.16 582.33">
  <defs>
    <style>
      .cls-1 {
        fill: #6fc3bb;
      }

      .cls-1, .cls-2, .cls-3, .cls-4, .cls-5 {
        stroke-width: 0px;
      }

      .cls-2 {
        fill: #67bd9a;
      }

      .cls-3 {
        fill: #46a78b;
      }

      .cls-4 {
        fill: #f4f4f4;
      }

      .cls-5 {
        fill: #4da7b1;
      }
    </style>
  </defs>
  <g>
    <path class="cls-4" d="M322.36,360.11v-175.05h101.2c38.09,0,63.6,19.17,63.6,58.84,0,24.54-11.6,42.36-33.81,52.86l36.25,63.35h-54.32l-32.84-57.5h-28.44v57.5h-51.64ZM373.99,259.65h43.46c10.62,0,18.07-4.27,18.07-15.75s-7.32-15.87-18.07-15.87h-43.46v31.62Z"/>
    <path class="cls-4" d="M579.07,229.99c42.85,0,72.88,27.83,72.88,72.27v5.13h-97.17c2.69,12.21,10.99,18.19,22.71,18.19,4.15,0,11.47-.73,14.77-3.05h56.76c-12.21,30.52-40.16,40.04-70.92,40.04-39.31,0-73.73-24.66-73.73-66.28s34.42-66.28,74.71-66.28ZM554.78,285.04h46.51c-2.81-12.08-10.99-18.07-23.19-18.07s-20.51,5.98-23.32,18.07Z"/>
    <path class="cls-4" d="M669.16,296.27c0-41.63,34.42-66.28,74.34-66.28,30.27,0,62.01,17.82,68.48,49.07h-49.2c-2.81-7.93-12.08-12.08-19.9-12.08-17.7,0-24.54,13.31-24.54,29.3s6.84,29.3,24.54,29.3c7.81,0,17.09-4.15,19.9-12.09h49.2c-6.47,31.25-38.21,49.07-68.48,49.07-39.92,0-74.34-24.66-74.34-66.28Z"/>
    <path class="cls-4" d="M880.71,175.06v74.1c7.57-14.28,21.61-19.17,38.09-19.17,41.63,0,54.08,31.25,54.08,68.73v61.4h-49.2v-61.4c0-14.65-3.54-31.74-21.48-31.74s-21.48,17.09-21.48,31.74v61.4h-49.19v-185.06h49.19Z"/>
    <path class="cls-4" d="M994.84,296.27c0-36.99,24.05-66.28,62.26-66.28,14.04,0,32.96,6.1,39.92,19.53v-17.09h49.2v127.69h-49.2v-17.09c-7.93,15.14-23.93,19.53-39.06,19.53-39.06,0-63.11-29.3-63.11-66.28ZM1044.04,296.27c0,16.24,9.4,29.3,26.49,29.3s26.49-13.06,26.49-29.3-9.4-29.3-26.49-29.3-26.49,13.06-26.49,29.3Z"/>
    <path class="cls-4" d="M1173.06,232.43h49.19v16.72c6.84-13.43,18.31-19.17,33.08-19.17,5.74,0,11.84.85,17.33,2.44v36.62c-6.23-1.59-12.7-2.08-19.17-2.08-22.71,0-31.25,15.62-31.25,36.62v56.52h-49.19v-127.69Z"/>
    <path class="cls-4" d="M1339.81,229.99c14.04,0,32.96,6.1,39.92,19.53v-17.09h49.2v121.58c0,48.34-26.73,71.04-74.1,71.04-29.05,0-63.96-12.45-67.75-47.12h49.68c1.95,8.67,11.96,10.13,18.31,10.13,23.44,0,24.66-19.9,24.66-37.72v-7.2c-7.45,13.43-25.63,19.41-39.92,19.41-38.21,0-62.26-29.3-62.26-66.28s24.05-66.28,62.26-66.28ZM1326.75,296.27c0,16.24,9.4,29.3,26.49,29.3s26.49-13.06,26.49-29.3-9.4-29.3-26.49-29.3-26.49,13.06-26.49,29.3Z"/>
    <path class="cls-4" d="M1525.6,229.99c42.85,0,72.88,27.83,72.88,72.27v5.13h-97.17c2.69,12.21,10.99,18.19,22.71,18.19,4.15,0,11.47-.73,14.77-3.05h56.76c-12.21,30.52-40.16,40.04-70.92,40.04-39.31,0-73.73-24.66-73.73-66.28s34.42-66.28,74.71-66.28ZM1501.31,285.04h46.51c-2.81-12.08-10.99-18.07-23.19-18.07s-20.51,5.98-23.32,18.07Z"/>
  </g>
  <g>
    <path class="cls-5" d="M249.34,148.85c12.28,5.83,12.25,23.32-.05,29.11l-79.35,37.34-79.35-37.34c-12.3-5.79-12.33-23.27-.05-29.11h158.81Z"/>
    <path class="cls-3" d="M290.82,352.48c-5.7,12.65-23.66,12.65-29.36,0l-35.22-78.21,35.22-78.21c5.7-12.65,23.66-12.65,29.36,0v156.42Z"/>
    <path class="cls-1" d="M45.1,196.06c5.7-12.65,23.66-12.65,29.36,0l35.22,78.21-35.22,78.21c-5.7,12.65-23.66,12.65-29.36,0v-156.42Z"/>
    <path class="cls-2" d="M90.53,399.69c-12.28-5.83-12.25-23.32.05-29.11l79.35-37.34,79.35,37.34c12.3,5.79,12.33,23.27.05,29.11H90.53Z"/>
  </g>
</svg>